<?xml version="1.0" encoding="UTF-8" standalone="no"?>
<!-- Created with Inkscape (http://www.inkscape.org/) -->

<svg
   width="512"
   height="512"
   viewBox="0 0 512 512"
   version="1.1"
   id="svg1"
   xml:space="preserve"
   inkscape:version="1.3.2 (091e20e, 2023-11-25, custom)"
   sodipodi:docname="phönix.svg"
   inkscape:export-filename="phönix.png"
   inkscape:export-xdpi="96"
   inkscape:export-ydpi="96"
   xmlns:inkscape="http://www.inkscape.org/namespaces/inkscape"
   xmlns:sodipodi="http://sodipodi.sourceforge.net/DTD/sodipodi-0.dtd"
   xmlns="http://www.w3.org/2000/svg"
   xmlns:svg="http://www.w3.org/2000/svg"><sodipodi:namedview
     id="namedview1"
     pagecolor="#505050"
     bordercolor="#eeeeee"
     borderopacity="1"
     inkscape:showpageshadow="0"
     inkscape:pageopacity="0"
     inkscape:pagecheckerboard="0"
     inkscape:deskcolor="#505050"
     inkscape:document-units="px"
     inkscape:zoom="1.1455078"
     inkscape:cx="48.013641"
     inkscape:cy="216.93436"
     inkscape:window-width="2560"
     inkscape:window-height="1369"
     inkscape:window-x="1912"
     inkscape:window-y="-8"
     inkscape:window-maximized="1"
     inkscape:current-layer="layer1" /><defs
     id="defs1" /><g
     inkscape:label="Ebene 1"
     inkscape:groupmode="layer"
     id="layer1"><path
       style="fill:#00d8b1;stroke-width:0.526232;fill-opacity:1"
       d="m 220.02831,500.20379 c -18.09768,-8.21154 -36.82074,-33.25857 -44.04102,-58.9165 -7.89508,-28.05588 -2.99827,-58.49159 13.45806,-83.64724 5.10736,-7.80727 8.26446,-11.71406 18.49334,-22.88478 7.54214,-8.23659 11.30465,-11.00397 24.54251,-18.05129 13.96627,-7.43514 17.36721,-10.2088 23.18459,-18.90852 5.29367,-7.91653 6.68186,-11.37664 5.65152,-14.08665 -0.94287,-2.47995 -2.47116,-2.10142 -6.89845,1.70862 -6.34625,5.46146 -10.70944,8.32494 -17.72466,11.63238 -8.14946,3.84223 -13.99038,5.81825 -19.70951,6.66793 -5.47333,0.81314 -32.55772,10.95487 -39.52048,14.79838 -11.21145,6.18888 -22.37196,16.17928 -31.20229,27.93099 -7.56865,10.0726 -11.98418,18.45277 -15.39215,29.21243 -3.85967,12.18579 -5.96018,14.31157 -10.42727,10.55277 -2.67074,-2.24729 -3.23828,-5.33026 -2.21903,-12.05423 2.12591,-14.02477 8.3793,-28.63547 17.21505,-40.2221 3.94694,-5.17574 15.02167,-15.77628 20.65511,-19.7707 6.86817,-4.86991 17.26998,-10.1718 25.37854,-12.93565 8.64771,-2.94764 29.40226,-8.88326 35.31353,-10.09938 2.31544,-0.47634 7.98183,-2.2765 12.592,-4.00033 4.61019,-1.72384 10.45136,-3.6041 12.9804,-4.17836 3.98722,-0.90537 7.10188,-1.77224 14.68451,-4.08695 1.27757,-0.38998 1.5526,-0.28647 1.17836,0.44348 -0.26852,0.52372 0.78415,-0.41574 2.33923,-2.0877 5.04983,-5.42936 8.91132,-18.05575 8.38274,-27.41019 -0.24263,-4.29399 -0.54406,-5.21256 -2.31808,-7.06425 -1.12154,-1.17064 -2.45174,-2.12845 -2.95597,-2.12845 -1.76029,0 -4.9833,5.61904 -6.53912,11.40038 -2.26853,8.42974 -5.79293,14.52415 -9.75164,16.86262 l -1.99818,1.18035 -1.09776,-4.02161 c -3.86377,-14.15468 -1.3355,-24.37377 10.45287,-42.24978 5.08903,-7.71706 16.04705,-19.65737 18.04022,-19.65737 1.56108,0 3.37564,3.75151 6.10877,12.62957 2.86686,9.31249 7.41913,18.40221 16.33976,32.62638 8.53018,13.60162 9.60596,15.96229 13.58157,29.80316 3.62567,12.62265 4.63551,20.85739 3.73065,30.42166 -1.11467,11.78171 -3.14719,18.15595 -8.87448,27.83133 -4.53445,7.66029 -14.15197,17.73854 -27.58705,28.90867 -10.20154,8.4817 -13.61073,12.03302 -15.35623,15.99647 -2.91829,6.62641 -5.03901,15.74943 -5.76464,24.7985 -0.74433,9.28233 -1.43446,12.38855 -2.75245,12.38855 -1.90225,0 -5.00081,-2.37175 -6.20634,-4.75056 -3.78394,-7.46664 -2.01762,-19.69348 5.64881,-39.10211 1.52433,-3.85904 3.49073,-8.12151 4.36979,-9.47217 0.87907,-1.35066 3.11064,-4.98166 4.95901,-8.06889 1.8484,-3.08723 4.23538,-6.56036 5.30439,-7.71807 2.45495,-2.6586 12.21501,-16.81273 15.66022,-22.71055 4.59484,-7.86586 11.00849,-26.05511 12.45693,-35.32814 1.44193,-9.23124 0.12494,-18.35099 -3.54388,-24.54008 -2.84913,-4.80634 -4.91488,-1.55128 -7.05026,11.10931 -1.90378,11.28745 -4.41752,20.33367 -7.71398,27.76025 -3.15654,7.11135 -14.00788,26.05419 -21.42128,37.39442 -16.06091,24.56828 -22.48531,39.00876 -24.60575,55.30761 -2.05985,15.83332 1.35657,31.45434 9.02678,41.5138 7.27231,9.53765 14.76368,10.46984 26.18803,15.84593 8.26215,3.88801 39.07837,13.23746 55.21817,9.88941 10.98556,-2.27886 21.40307,-7.75923 29.49368,-15.51586 6.11769,-5.86513 10.31458,-11.76262 14.1845,-19.93208 4.43089,-9.35371 5.45392,-14.29167 5.47292,-26.41673 0.0144,-9.22922 -0.15925,-10.68699 -1.87109,-15.70109 -2.18651,-6.4044 -2.24644,-6.98304 -0.84373,-8.14719 1.41138,-1.17133 3.80265,-0.46386 6.98782,2.06739 6.76034,5.37244 11.04139,14.56561 12.24038,26.28503 2.96783,29.00897 -13.41251,62.11865 -37.11095,75.01263 -5.94384,3.23395 -18.70528,10.92241 -27.54622,12.85139 -4.2007,0.91654 -9.51209,2.34124 -25.39208,2.22152 -15.61744,-0.11773 -32.30905,-4.63217 -45.84091,-13.41248 -15.35074,-9.96047 -29.02368,-25.41639 -36.77496,-41.57049 -4.58993,-9.56566 -6.25458,-17.08783 -6.66879,-30.13452 -0.8128,-25.6015 5.89098,-43.85519 24.6087,-67.00687 3.78409,-4.6805 12.2096,-16.94627 16.44378,-23.93866 1.94664,-3.2147 1.97598,-4.8287 0.0878,-4.8287 -2.09659,0 -3.79946,1.03399 -10.47851,6.36248 -19.29907,15.3967 -37.5694,41.97131 -41.7679,60.75242 -3.90503,17.46838 -4.57352,27.48566 -2.76461,41.42837 3.01392,23.23075 12.06804,41.10532 30.02431,59.27372 10.77227,10.89952 11.14732,11.49652 8.59957,13.68801 -2.40733,2.07071 -7.23856,2.15395 -11.54722,0.19896 z m -60.08757,-30.74368 c -2.38873,-1.45672 -7.85155,-9.08915 -12.12925,-16.94653 -14.7008,-27.00264 -11.52706,-62.46697 8.50813,-95.07257 3.31016,-5.38703 13.42119,-16.76255 18.47039,-20.78031 6.64998,-5.29155 15.34743,-10.30014 20.72005,-11.93202 7.33488,-2.2279 7.92865,-1.60258 2.7506,2.89673 -6.19641,5.38417 -9.26121,8.71119 -15.79225,17.14328 -11.00993,14.21475 -15.78243,23.19442 -20.3652,38.31803 -4.28796,14.15069 -4.94827,18.94163 -4.927,35.74802 0.0187,14.80668 0.0613,15.24044 2.30264,23.48486 1.25593,4.61974 3.49432,11.25028 4.97417,14.7345 4.0117,9.44529 3.97741,9.19138 1.56646,11.60234 -2.44751,2.44751 -3.21648,2.54918 -6.07874,0.80367 z M 125.50403,294.62432 c -1.96698,-0.27641 -4.48904,-0.94001 -5.60456,-1.47466 -3.47238,-1.66427 -2.94957,-3.02278 2.56027,-6.65267 23.33122,-15.37068 50.14809,-40.50493 61.96903,-58.08072 2.43829,-3.62536 2.31482,-5.50684 -0.57095,-8.70105 -3.64474,-4.03429 -5.33793,-4.74211 -8.02266,-3.35379 -1.73023,0.89474 -2.20047,1.59134 -2.20047,3.25967 0,5.12785 -4.67275,10.63614 -21.58557,25.4454 -36.68347,32.12089 -48.14129,38.54406 -63.477457,35.58497 -6.251453,-1.20623 -16.675163,-7.1857 -16.675163,-9.56558 0,-0.56877 0.777595,-1.32976 1.727967,-1.6911 5.576972,-2.12036 27.148533,-11.98276 33.704993,-15.40973 18.57692,-9.70994 36.50201,-20.51761 50.16745,-30.24779 4.24785,-3.02459 14.10484,-8.43525 17.10037,-9.38664 2.87591,-0.91341 -0.89598,-8.39856 -6.49021,-12.87956 -3.65919,-2.93103 -18.15404,-19.19182 -23.97615,-26.89724 -2.44136,-3.23108 -6.23908,-8.08486 -8.43939,-10.78618 C 130.7463,157.71634 109.09791,127.1094 102.97241,117.52871 90.048366,97.314578 83.888452,76.507648 84.717694,55.867922 85.243122,42.790155 87.624247,34.909229 93.933123,25.367322 100.20969,15.874249 109.95409,7.681131 119.65728,3.7383674 c 5.04684,-2.0507088 8.41835,-2.1616057 10.07469,-0.3313548 1.17094,1.2938702 1.08215,1.5543846 -2.21232,6.4901916 -7.18246,10.7608258 -9.82893,16.8049278 -12.6607,28.9150048 -1.60913,6.881404 -1.82376,9.290076 -1.82061,20.430689 0.002,11.116084 0.23595,13.722637 1.94262,21.750917 2.23461,10.511751 3.75156,14.638352 10.18808,27.714885 9.45406,19.20698 29.51012,47.37499 51.83334,72.79801 3.2029,3.64765 9.56785,11.09885 14.14435,16.55825 4.57649,5.45939 9.48177,11.00347 10.90062,12.32016 2.96204,2.74878 3.06798,1.57761 -1.32793,14.67975 -3.24653,9.6763 -6.81136,16.49929 -11.90495,22.78574 -1.62317,2.00329 -4.96827,6.32615 -7.43358,9.60633 -5.6426,7.5077 -17.04187,21.22358 -20.57676,24.75847 -8.92681,8.92681 -23.5355,14.06214 -35.3001,12.40891 z m 246.35182,-0.75854 c -4.73128,-0.96492 -11.26325,-4.17074 -16.46461,-8.08067 -4.53981,-3.41264 -19.36256,-19.29583 -27.93369,-29.93211 -2.80456,-3.48029 -7.2575,-8.59993 -9.89541,-11.37698 -2.63792,-2.77703 -6.07145,-6.75464 -7.63006,-8.8391 -2.90813,-3.8893 -9.30009,-15.26574 -9.30009,-16.55236 0,-0.39554 1.49978,-2.2669 3.33281,-4.15859 22.88939,-23.62177 43.93299,-46.89582 50.07172,-55.37885 1.78038,-2.46028 5.76269,-7.88023 8.84956,-12.04429 21.04103,-28.38349 31.21885,-50.072751 34.61571,-73.767203 1.12551,-7.850809 0.46396,-30.202162 -1.10387,-37.296118 -1.847,-8.35704 -4.10693,-13.289499 -13.41061,-29.2695105 -1.23581,-2.1226255 -1.24303,-2.326847 -0.12208,-3.4478134 1.77519,-1.7751967 5.48527,-1.3248754 11.26036,1.3667267 12.16016,5.6675072 23.52088,17.3868742 28.73354,29.6405932 3.02846,7.119244 3.71181,11.635256 3.65617,24.16257 -0.0394,8.85276 -0.38818,13.145663 -1.48254,18.242705 -1.99313,9.283221 -7.41701,24.35095 -11.61813,32.27556 -14.14622,26.68414 -55.22861,79.01333 -75.8357,96.59664 -2.25128,1.92094 -3.31341,3.33564 -3.14823,4.19331 0.14599,0.75814 3.15217,3.0555 7.25654,5.54561 3.854,2.33819 9.79574,6.31907 13.20387,8.84638 5.93961,4.40451 11.64463,7.88507 31.69209,19.33491 11.24842,6.42439 35.99352,18.59248 43.32892,21.30647 10.45872,3.86958 11.59388,5.19323 7.44649,8.68304 -5.1355,4.32123 -12.18624,6.67316 -20.044,6.68611 -9.94005,0.0164 -12.66922,-1.16001 -28.79717,-12.41278 -18.86166,-13.16011 -45.23737,-35.9123 -52.84121,-45.58183 -3.93511,-5.00411 -5.32535,-5.66382 -8.52217,-4.04397 -7.17382,3.63499 -6.81308,5.21649 4.07008,17.84342 13.92837,16.16012 33.89961,33.35437 56.58694,48.71859 6.77003,4.58477 7.47053,5.98677 3.91093,7.82751 -2.72773,1.41057 -14.72173,1.9612 -19.86617,0.91203 z M 258.53343,278.2413 c 0,-0.14569 0.55255,-0.69824 1.22788,-1.22787 1.11286,-0.87276 1.13767,-0.84794 0.26491,0.26491 -0.91659,1.16875 -1.49279,1.54043 -1.49279,0.96296 z m -36.90966,-5.98018 c -2.68825,-1.63923 -8.1346,-9.73188 -9.72717,-14.45337 -2.47435,-7.33576 -2.11049,-20.85755 0.81184,-30.17062 3.30383,-10.52883 10.37789,-21.4707 24.03497,-37.17639 10.5744,-12.16057 12.553,-15.48535 13.65863,-22.95143 0.71706,-4.84218 -0.51836,-8.35491 -4.45222,-12.65917 -6.35193,-6.95002 -14.21337,-9.92385 -26.35755,-9.97053 -11.65713,-0.0448 -16.14599,2.00372 -22.21362,10.1375 -1.78472,2.39244 -1.86817,2.42314 -3.23661,1.19078 -0.77257,-0.69574 -2.28824,-3.22165 -3.36816,-5.61314 -1.62082,-3.58935 -1.96524,-5.33034 -1.9736,-9.97614 -0.0169,-9.36236 2.42538,-12.72778 13.55053,-18.6729 2.80882,-1.501 3.24847,-2.10079 4.59277,-6.26522 0.81764,-2.53292 2.32317,-6.03279 3.34565,-7.7775 2.97528,-5.07694 11.3623,-11.315341 18.77523,-13.965306 7.36658,-2.633392 7.39395,-2.664924 8.35567,-9.623214 1.61764,-11.703921 5.28064,-23.317466 7.3545,-23.317466 0.46777,0 3.51807,0.782728 6.77841,1.739383 3.86246,1.133326 7.70037,1.744506 11.01483,1.754106 2.79781,0.0079 5.08693,0.214046 5.08693,0.457683 0,0.243626 -0.93318,3.164202 -2.07374,6.490194 -2.2383,6.527129 -3.76948,14.778198 -3.41155,18.383837 0.22051,2.221502 0.29633,2.264079 6.88857,3.867215 16.83838,4.094865 20.95322,4.679984 30.17063,4.290138 8.5893,-0.363278 14.00798,-1.485243 20.62058,-4.269595 4.67619,-1.968974 6.00105,1.051681 3.18456,7.260715 -2.14093,4.71979 -4.42146,7.35362 -9.5132,10.98701 -6.65826,4.75123 -12.3386,6.64113 -21.30837,7.08947 -7.08656,0.3542 -7.56383,0.28457 -12.52763,-1.82773 -2.83821,-1.20777 -5.45086,-2.19595 -5.80591,-2.19595 -0.35504,0 -0.95842,0.82297 -1.34086,1.82884 -0.92508,2.43314 0.63482,4.91384 6.69642,10.64934 7.12532,6.74197 10.89127,16.01317 11.18297,27.53073 0.0769,3.03857 0.51618,5.95486 0.9813,6.51528 0.4631,0.558 1.18538,3.67464 1.60507,6.92587 1.22289,9.47341 -1.22067,23.36454 -5.63059,32.00868 -0.82723,1.62152 -1.76157,2.94824 -2.0763,2.94824 -1.01957,0 -7.11732,-5.07374 -7.11732,-5.92208 0,-0.45255 1.8879,-4.46072 4.19531,-8.90701 3.14923,-6.06845 4.381,-9.29514 4.94002,-12.94074 0.40959,-2.6711 1.01261,-6.43526 1.34005,-8.36477 0.33946,-2.00037 0.3272,-4.01613 -0.0285,-4.68997 -0.34313,-0.64996 -0.62387,-1.81534 -0.62387,-2.58973 0,-3.4989 -1.66055,-1.78725 -4.81056,4.95858 -5.5173,11.81548 -12.91999,22.62015 -27.07241,39.51377 -15.02659,17.93714 -23.04222,31.03135 -26.23173,42.85183 -1.78709,6.62307 -3.61987,18.20978 -3.62571,22.92157 -0.005,3.8327 -0.95782,4.2435 -4.63826,1.99921 z m 18.88214,-146.8209 c 5.21456,-1.30661 10.30946,-8.00731 10.30946,-13.55878 0,-3.91811 -3.378,-4.11824 -7.37191,-0.43677 -2.24652,2.07076 -4.42647,3.18077 -8.96604,4.56542 -6.09099,1.85786 -8.86147,3.92897 -9.98313,7.46298 -0.90175,2.84115 0.69471,3.51061 7.28527,3.05501 3.33048,-0.23023 7.25734,-0.71976 8.72635,-1.08786 z M 53.475524,254.59025 c -6.343746,-1.49511 -14.969493,-7.73366 -17.697869,-12.79993 -1.780586,-3.30635 -0.825747,-4.35979 4.451623,-4.91139 7.24503,-0.75724 37.285102,-7.39396 48.155833,-10.63899 18.245889,-5.44661 36.905719,-12.49435 54.982299,-20.76664 5.41778,-2.47929 8.03797,-2.61223 9.52904,-0.48345 2.29615,3.27823 1.49852,5.12009 -3.99467,9.22427 -9.25244,6.91287 -32.7902,19.61388 -52.798599,28.49019 C 69.04526,254.708 62.142116,256.6328 53.475524,254.59025 Z m 392.362586,0.0299 c -18.09592,-4.29418 -77.21512,-33.6748 -87.14519,-43.30874 -2.89381,-2.80754 -3.45004,-5.69807 -1.60372,-8.33407 1.37129,-1.95778 3.28756,-1.58715 11.60212,2.24395 15.75989,7.2617 55.9426,20.96261 71.15164,24.26022 3.50894,0.76079 9.22153,2.14371 12.69466,3.07312 3.47313,0.92941 9.78793,2.3687 14.03286,3.19841 4.24492,0.8297 8.2706,1.80111 8.94595,2.15868 2.13362,1.1297 1.38679,3.65056 -2.31052,7.79884 -6.60491,7.41052 -18.02195,11.12737 -27.3678,8.90959 z M 26.446571,216.82402 c -5.324284,-1.97631 -8.128347,-3.8869 -11.751787,-8.00727 -3.930391,-4.46939 -8.0510407,-12.4816 -8.0510407,-15.65444 0,-1.29882 0.2652357,-2.36149 0.5894041,-2.36149 0.3241831,0 3.0868976,0.6409 6.1393746,1.4242 14.749973,3.78503 25.754967,4.9868 60.979731,6.65906 29.795807,1.41453 38.239527,2.35354 38.239527,4.25251 0,0.7327 -11.72125,5.90753 -15.669454,6.91794 -2.250789,0.57601 -8.091965,1.67804 -12.980388,2.44896 -4.888423,0.77089 -14.097738,2.24172 -20.465155,3.26849 -15.854754,2.55662 -31.759429,3.00848 -37.030212,1.05204 z m 432.756659,0.2678 c -18.66674,-2.33328 -44.65057,-7.54654 -49.41628,-9.91464 -2.42568,-1.20532 -6.71513,-5.72268 -6.71513,-7.07193 0,-0.67601 2.68947,-0.88206 11.40169,-0.8735 12.82641,0.0123 39.91075,-1.07428 53.14942,-2.13287 10.11209,-0.80857 22.26213,-2.76111 30.95964,-4.97526 8.79806,-2.23975 9.82093,-1.39203 6.61884,5.48549 -3.31259,7.11488 -10.15312,14.48022 -16.49683,17.7625 -5.53867,2.86576 -15.62957,3.45414 -29.50135,1.72021 z m -341.2686,-21.11005 c -2.77189,-3.47397 -6.80967,-5.07379 -15.78059,-6.25247 -4.191361,-0.55068 -10.582716,-1.47056 -14.203011,-2.04414 C 84.330747,187.11157 75.693351,186.1523 68.756835,185.55345 47.285905,183.69979 36.30331,181.6308 22.627144,176.86317 9.5511892,172.30478 5.2673945,169.09488 2.5433049,161.81408 -0.19125071,154.50534 -1.1215098,137.75366 1.129895,136.36221 c 0.379957,-0.23482 2.4864273,0.97313 4.6810372,2.68434 10.6406618,8.29684 23.8280558,16.12165 36.9164498,21.90454 18.037997,7.96979 25.914866,10.65811 46.626975,15.91349 9.022943,2.28943 16.973993,4.46693 17.668983,4.83888 2.64111,1.41347 13.26157,3.51814 21.35539,4.232 6.96849,0.61461 8.69182,0.99805 9.99841,2.22467 2.07328,1.9464 1.99153,3.03751 -0.40735,5.43638 -2.36134,2.36134 -10.03665,4.92246 -14.75187,4.92242 -2.90337,-1e-5 -3.47974,-0.27681 -5.28329,-2.53716 z m 260.4045,0.0394 c -7.25185,-1.75749 -8.86583,-3.81654 -6.34139,-8.09006 1.3908,-2.35445 2.03772,-2.50011 13.71425,-3.08768 6.38433,-0.32125 11.0654,-1.11123 20.69846,-3.49307 13.84648,-3.42363 29.35445,-7.96403 37.35663,-10.93722 2.89429,-1.07535 9.36694,-3.44602 14.38368,-5.26811 18.58763,-6.7511 37.71901,-17.18191 47.91621,-26.12486 5.81897,-5.10325 6.11436,-4.7769 6.09626,6.73537 -0.0123,7.63841 -0.24419,9.48573 -1.62586,12.93662 -3.86967,9.66494 -8.9157,13.85297 -21.57734,17.9085 -15.90158,5.09325 -28.293,7.37305 -48.70115,8.96016 -15.66968,1.2186 -36.14333,4.41309 -40.01336,6.24325 -1.33981,0.63361 -4.01472,2.08057 -5.94424,3.21546 -4.0432,2.37814 -8.99912,2.68912 -15.96215,1.00164 z M 116.45082,172.46694 C 107.88921,170.47826 76.718622,160.04442 68.037465,156.26139 50.931357,148.80695 34.932418,139.803 24.352936,131.67646 16.665084,125.77108 13.425983,122.1047 10.333601,115.8078 8.5764919,112.22985 8.4032609,111.18622 8.4563949,104.49885 8.4906909,100.18452 9.0070107,95.096314 9.7023985,92.220097 11.084219,86.504734 14.086855,79.941356 15.319711,79.941356 c 0.470085,0 1.743595,1.81242 2.830018,4.027582 5.423585,11.058491 15.417093,23.193102 27.98333,33.978752 12.86445,11.04163 16.233289,13.66082 25.16607,19.56602 4.495238,2.97167 10.190847,6.84283 12.656911,8.60259 6.64553,4.74214 25.78623,14.22392 33.54993,16.61971 3.7332,1.15202 7.31211,2.67414 7.95315,3.38247 1.35712,1.49961 1.5411,5.08179 0.32354,6.29936 -0.97096,0.97095 -5.26585,0.99356 -9.33184,0.0492 z m 268.13622,-0.49025 c -2.85171,-3.15111 -0.42862,-6.25622 6.55684,-8.40236 15.51981,-4.76811 25.97186,-9.85819 42.03023,-20.46842 29.14715,-19.25833 48.17886,-37.57406 59.93572,-57.680937 1.95964,-3.35142 3.8504,-5.915848 4.20169,-5.698734 1.91963,1.186405 5.50528,12.908445 6.41073,20.957641 0.78498,6.97833 -2.03667,15.62475 -7.12806,21.84273 -8.82398,10.77641 -31.88913,25.5697 -54.26223,34.80211 -8.01719,3.30835 -38.39661,13.46115 -44.39058,14.83533 -6.63393,1.52088 -11.87495,1.44735 -13.35434,-0.18736 z M 104.87371,146.09585 C 102.36305,145.10179 92.424302,137.93406 81.368676,129.14421 61.159546,113.07682 49.125886,99.675024 41.913803,85.203662 36.629506,74.600474 35.514202,68.952732 37.096269,60.808263 38.478906,53.690531 42.144551,46.802345 47.66764,40.94341 c 6.196094,-6.572861 6.734451,-6.305992 8.188986,4.059293 1.321401,9.416652 3.747923,18.391604 7.327987,27.10383 7.566739,18.413971 23.752383,44.085557 41.657117,66.071157 4.41124,5.41667 5.17868,7.94684 2.48773,8.20189 -0.7718,0.0731 -1.87689,-0.0546 -2.45575,-0.28373 z m 300.12764,-0.2563 c -2.09724,-1.22152 -1.38514,-3.13615 3.15738,-8.48945 12.67903,-14.94202 22.92987,-30.71574 32.95108,-50.704177 8.90618,-17.764389 13.11299,-29.683574 15.58817,-44.166095 0.58641,-3.431141 1.23078,-6.403019 1.43194,-6.604177 1.53642,-1.53642 8.28806,5.773258 12.32043,13.338743 6.69954,12.569591 6.54407,19.781445 -0.74561,34.585986 -6.79869,13.807463 -18.14909,27.69627 -33.13198,40.54168 -14.31807,12.27541 -20.33525,16.97534 -25.25648,19.72745 -5.08905,2.84595 -4.66958,2.72839 -6.31493,1.77004 z M 207.6876,95.422442 c -1.94141,-3.754274 -3.38006,-14.540709 -2.91489,-21.854775 0.23521,-3.698487 0.77614,-7.724173 1.20206,-8.945958 l 0.77439,-2.221422 h 9.36213 c 5.76741,0 9.53653,0.282197 9.81636,0.73495 0.24982,0.404207 0.0324,2.377582 -0.483,4.385264 -0.53217,2.072709 -0.91234,7.039697 -0.87967,11.492798 l 0.0575,7.842461 -2.96976,1.134172 c -1.63338,0.623781 -5.20573,3.011551 -7.93856,5.306123 l -4.96878,4.171975 z M 316.47352,72.784263 c -3.46219,-2.029783 -3.88023,-3.19842 -1.33229,-3.72439 8.57646,-1.770453 12.8683,-4.122448 15.71585,-8.612553 1.50436,-2.372122 2.04637,-4.084328 2.03508,-6.428709 -0.0335,-6.932834 -4.41127,-12.151938 -13.51755,-16.11513 l -5.46403,-2.378035 -8.49781,1.881206 c -12.78595,2.830508 -19.05131,6.306046 -27.48559,15.246831 -3.60088,3.817124 -6.79356,6.940239 -7.09486,6.940239 -0.30128,0 -3.35741,-1.124109 -6.79138,-2.498025 -4.08,-1.632366 -7.9396,-2.640195 -11.13788,-2.908325 -2.69184,-0.225677 -4.89426,-0.573589 -4.89426,-0.773149 0,-1.609025 5.95166,-10.035207 11.49416,-16.273065 3.15496,-3.550789 11.03195,-10.127487 11.72879,-10.524647 7.25752,-4.136368 2.12093,-1.332947 8.26783,-4.611625 0.86434,-0.461023 8.95728,-5.370709 14.81764,-7.3622 6.2767,-2.132983 16.77135,-2.604919 24.22032,-1.089173 14.0321,2.855332 24.78795,11.72948 28.07425,23.162787 1.63604,5.691829 1.13994,15.36286 -1.0834,21.120574 -2.07932,5.384723 -7.66181,11.343374 -13.14063,14.026101 -5.67473,2.778643 -12.11068,3.151228 -15.91424,0.921288 z m -92.54033,-15.72003 c -1.48545,-0.805246 -3.69187,-1.01532 -8.91692,-0.848962 l -6.94306,0.221051 0.39338,-1.754094 c 0.55737,-2.485333 4.11129,-9.864719 5.69263,-11.820211 l 1.33136,-1.64639 5.7118,1.077291 c 3.14147,0.592509 7.13007,1.704669 8.86354,2.471457 l 3.15176,1.394178 -2.25449,5.138884 c -3.40253,7.75575 -3.38598,7.742178 -7.03,5.766796 z m 7.96514,-18.630974 c -2.83978,-1.032104 -5.15607,-1.334198 -8.94757,-1.166942 -3.39019,0.149536 -5.11532,-0.0347 -5.11422,-0.546124 0.007,-3.086026 10.41671,-12.645762 17.2608,-15.850687 5.32034,-2.491408 12.81489,-3.96424 13.61169,-2.674983 0.6982,1.129717 -0.38677,5.033011 -2.63242,9.470452 -2.00871,3.969236 -8.58062,12.290644 -9.64491,12.21244 -0.38591,-0.02831 -2.42591,-0.678226 -4.53337,-1.444156 z"
       id="path1"
       sodipodi:nodetypes="ssssssssssssssssssssssssssssscssssssssssssssssssssssssssssssssssssssssssssssssssssssssssssssssssssssssssssssssssssssscsssssssssssssssssssssssssssssssssssssssssssssssscssssssssssssssssssssssssssssssssssssssssssssscccsssssssssssssssssssssssssssssssssssssssscsssssssssssssssssssssssssssscssssssssssssscsssssssssssssssssscsssssssccssssssssssssscsscscsscsssssscssssssssssssssssscsscsscsssscsssss" /></g></svg>
